# xmcd
#
# Track frame offsets:
#	150
#	39346
#	72324
#	120872
#	172214
#	200495
#	239537
#
# Disc length: 4786 seconds
#
# Revision: 1
# Processed by: cddbd v1.5PL3 Copyright (c) Steve Scherf et al.
# Submitted via: EasyCDDAExtractor 6.5.2.1
#
DISCID=5e12b007
DTITLE=Consumer Electronics - CE
DYEAR=1900
DGENRE=
TTITLE0=Diode Caulker
TTITLE1=Amp Pong Killer
TTITLE2=Innagodadavida
TTITLE3=the Amway synthesizer
TTITLE4=electro-Spazz
TTITLE5=The Caulking Diode Dub
TTITLE6=lets have sinewave sex
EXTD=
EXTT0=
EXTT1=
EXTT2=
EXTT3=
EXTT4=
EXTT5=
EXTT6=
PLAYORDER=
